<?xml version="1.0" standalone="no"?>
<!DOCTYPE svg PUBLIC "-//W3C//DTD SVG 20010904//EN"
 "http://www.w3.org/TR/2001/REC-SVG-20010904/DTD/svg10.dtd">
<svg version="1.0" xmlns="http://www.w3.org/2000/svg"
 width="1086.000000pt" height="1038.000000pt" viewBox="0 0 1086.000000 1038.000000"
 preserveAspectRatio="xMidYMid meet">

<g transform="translate(0.000000,1038.000000) scale(0.100000,-0.100000)"
fill="#000000" stroke="none">
<path d="M3073 9878 c-40 -44 -43 -62 -43 -245 0 -186 4 -204 48 -240 41 -33
110 -6 132 53 12 31 12 302 1 364 -16 79 -93 117 -138 68z"/>
<path d="M5005 9273 c-168 -37 -299 -79 -335 -107 -8 -6 -31 -20 -50 -30 -107
-57 -260 -196 -358 -324 -132 -171 -304 -473 -403 -702 -22 -52 -44 -104 -49
-115 -28 -62 -101 -272 -125 -362 -11 -40 -25 -67 -39 -76 -26 -17 -195 -46
-341 -58 -60 -5 -137 -16 -170 -24 -33 -8 -80 -15 -105 -15 -25 0 -88 -9 -140
-19 -52 -11 -162 -32 -245 -47 -82 -15 -177 -33 -210 -41 -33 -8 -91 -21 -130
-28 -99 -20 -297 -73 -430 -115 -33 -10 -75 -22 -93 -25 -18 -4 -45 -13 -60
-21 -15 -8 -32 -14 -39 -14 -22 0 -269 -101 -378 -155 -152 -75 -281 -163
-379 -259 -103 -100 -161 -196 -193 -320 l-23 -88 0 -1442 c0 -1533 0 -1520
48 -1628 17 -39 26 -48 54 -53 60 -11 471 -1 475 11 2 7 -26 36 -62 67 -37 30
-79 72 -93 93 -26 38 -27 43 -27 189 l0 150 27 3 c25 3 95 -26 128 -52 39 -32
357 -165 475 -200 22 -6 60 -19 85 -28 25 -9 88 -28 140 -42 52 -15 124 -35
160 -45 110 -31 407 -97 590 -130 110 -20 145 -21 760 -20 355 1 715 4 800 8
l155 6 -227 13 c-126 7 -254 17 -285 23 -32 5 -130 14 -218 19 -88 6 -194 17
-235 25 -41 8 -129 19 -195 25 -66 5 -136 14 -155 20 -19 5 -73 15 -120 20
-93 11 -268 42 -370 67 -36 8 -92 19 -125 23 -33 5 -74 14 -90 21 -17 6 -59
17 -95 24 -82 16 -229 53 -255 65 -11 5 -40 14 -65 20 -87 22 -324 100 -377
125 -17 8 -36 15 -43 15 -6 0 -28 9 -48 20 -20 10 -59 29 -87 41 -90 40 -239
133 -286 179 l-46 45 -6 295 c-3 162 -2 376 1 475 7 178 7 180 30 183 13 2 35
-4 50 -14 15 -10 58 -35 96 -56 113 -63 196 -47 196 37 0 56 -17 79 -82 110
-33 16 -78 42 -101 59 -23 17 -61 44 -85 60 -24 16 -56 45 -73 63 l-29 34 2
206 c3 243 3 242 90 203 29 -13 60 -29 68 -35 8 -6 58 -31 110 -54 90 -41 146
-63 250 -98 25 -8 65 -23 90 -33 25 -10 62 -21 84 -24 21 -4 46 -11 55 -16 16
-9 83 -29 196 -56 33 -8 74 -20 90 -26 17 -6 55 -15 85 -20 30 -5 87 -18 125
-28 107 -30 368 -80 545 -106 58 -8 151 -24 207 -35 56 -10 126 -19 155 -19
29 0 103 -9 163 -19 61 -10 164 -22 230 -25 66 -4 174 -13 240 -21 258 -30
1209 -57 1557 -44 139 5 384 14 543 19 160 5 324 14 365 19 41 5 147 14 235
20 88 7 192 16 230 22 39 6 113 15 165 20 52 6 138 17 190 25 52 8 147 21 210
30 63 8 124 19 135 24 11 5 61 14 110 21 50 6 97 15 106 20 9 4 47 13 85 19
64 9 114 21 284 65 36 9 86 20 113 25 26 5 75 18 110 28 34 11 103 32 152 47
50 15 128 41 175 57 47 17 110 39 140 49 30 11 59 24 64 29 6 6 16 10 24 10 8
0 68 27 134 60 128 64 170 73 188 41 14 -27 13 -339 -2 -382 -6 -19 -18 -44
-27 -57 -24 -33 -174 -133 -266 -176 -44 -20 -87 -41 -96 -45 -29 -16 -170
-71 -182 -71 -7 0 -23 -6 -37 -13 -25 -13 -175 -62 -300 -98 -36 -10 -95 -27
-132 -38 -36 -11 -97 -25 -134 -31 -37 -6 -75 -15 -86 -21 -10 -6 -51 -16 -91
-24 -40 -7 -110 -20 -157 -30 -269 -53 -437 -81 -615 -100 -72 -8 -150 -18
-175 -24 -25 -5 -117 -14 -205 -20 -88 -6 -187 -16 -220 -21 -87 -14 -358 -30
-510 -30 -72 0 -156 -4 -186 -10 -72 -13 -948 -20 -1114 -9 -71 5 -256 14
-410 19 -154 6 -316 15 -360 20 -44 5 -136 14 -205 20 -186 16 -305 28 -398
42 -75 11 -87 10 -117 -6 -60 -33 -69 -105 -18 -146 31 -24 96 -37 248 -49 66
-5 181 -17 255 -25 171 -20 601 -46 925 -56 316 -9 1228 -2 1400 11 72 5 236
16 365 24 129 7 285 20 345 29 61 8 151 17 200 21 50 3 109 10 132 15 22 6
103 17 179 26 77 9 142 18 147 21 5 3 61 13 125 23 178 28 342 59 392 74 25 8
68 17 95 21 28 4 65 13 83 21 18 7 57 16 85 20 29 4 66 12 82 20 17 7 57 20
90 28 103 26 197 54 285 86 47 17 99 35 115 39 33 10 129 52 186 82 20 10 41
19 46 19 6 0 55 25 110 55 115 63 139 67 154 28 14 -37 6 -877 -9 -913 -5 -14
-18 -34 -28 -46 -26 -28 -168 -134 -181 -134 -6 0 -16 -6 -22 -14 -7 -8 -23
-17 -38 -21 -14 -3 -62 -23 -107 -44 -44 -22 -101 -46 -126 -54 -25 -8 -103
-36 -175 -62 -71 -25 -170 -57 -220 -70 -49 -13 -112 -31 -140 -39 -125 -37
-161 -46 -186 -46 -15 0 -42 -6 -61 -14 -19 -8 -59 -18 -89 -21 -30 -4 -78
-14 -107 -22 -51 -14 -87 -21 -307 -57 -55 -9 -152 -25 -215 -36 -63 -10 -153
-22 -200 -25 -47 -3 -119 -12 -160 -20 -41 -8 -142 -19 -225 -25 -82 -6 -184
-14 -226 -19 -42 -6 -170 -15 -285 -21 -115 -7 -210 -13 -212 -14 -7 -7 591
-16 1068 -16 504 0 552 1 640 20 52 11 131 27 175 35 135 26 205 43 325 75 63
17 133 35 155 40 80 20 463 143 510 165 17 7 59 25 95 40 77 32 190 89 242
122 46 29 93 30 108 4 5 -11 10 -67 10 -125 0 -142 -19 -185 -125 -284 -61
-57 -76 -76 -64 -83 8 -5 118 -9 246 -9 l232 0 24 33 c30 41 35 53 57 158 18
81 18 158 14 1519 -3 788 -9 1441 -13 1449 -5 9 -12 41 -16 71 -5 38 -20 77
-51 129 -24 40 -44 76 -44 78 0 16 -208 203 -275 248 -76 50 -255 141 -339
171 -22 8 -44 18 -50 23 -6 5 -29 14 -51 21 -22 7 -51 18 -65 25 -14 8 -72 28
-130 45 -58 17 -123 38 -145 46 -22 7 -60 18 -85 24 -96 21 -217 53 -250 65
-19 8 -57 17 -85 20 -27 3 -71 13 -96 21 -26 8 -85 21 -130 29 -204 35 -268
46 -335 61 -38 8 -113 19 -164 25 -52 5 -110 14 -130 19 -19 6 -84 15 -145 20
-109 10 -303 36 -338 46 -19 6 -60 87 -84 169 -8 28 -23 69 -34 92 -10 24 -19
48 -19 54 0 6 -30 72 -66 148 -36 75 -76 156 -87 181 -12 25 -44 85 -71 135
-27 49 -56 104 -64 120 -9 17 -28 49 -44 72 -15 23 -28 44 -28 48 0 16 -84
127 -108 142 -15 10 -30 22 -34 28 -10 14 -148 12 -175 -3 -31 -17 -102 17
-127 61 -49 84 -123 126 -226 128 -136 1 -191 48 -237 203 -21 70 -39 93 -97
127 -49 28 -95 35 -151 22z m-24 -495 c28 -35 72 -82 97 -105 58 -54 194 -121
273 -135 53 -9 69 -18 126 -68 79 -71 144 -103 248 -124 132 -27 128 -24 198
-146 45 -80 177 -341 177 -351 0 -5 12 -36 26 -67 14 -31 37 -86 51 -122 13
-36 33 -84 44 -108 10 -23 19 -48 19 -56 0 -7 7 -27 16 -45 9 -18 23 -79 31
-136 12 -90 12 -115 -1 -193 -8 -50 -22 -107 -32 -128 -99 -219 -384 -435
-674 -510 -30 -8 -69 -19 -86 -24 -107 -35 -510 -39 -619 -7 -27 9 -70 18 -95
22 -80 13 -334 121 -383 163 -9 8 -25 20 -36 26 -10 6 -47 34 -81 61 -175 138
-238 242 -271 445 -11 70 -10 85 15 209 59 291 203 647 382 946 168 279 284
410 439 491 66 35 78 31 136 -38z m-1382 -1662 c15 -16 31 -59 47 -122 25
-102 87 -237 145 -318 80 -111 272 -294 355 -337 21 -12 55 -31 74 -43 102
-66 165 -99 220 -117 19 -7 37 -15 40 -18 8 -11 147 -51 290 -83 131 -30 143
-31 405 -32 249 -1 278 1 370 22 55 13 120 30 145 38 25 8 65 21 90 28 45 14
145 55 167 69 6 4 38 21 70 38 185 97 417 294 497 422 87 140 156 309 156 382
0 21 9 44 23 61 l24 27 144 -12 c79 -7 189 -21 244 -31 55 -10 131 -21 168
-25 37 -4 82 -11 100 -16 18 -5 79 -16 135 -24 57 -9 112 -19 121 -25 10 -5
58 -14 107 -20 48 -6 93 -15 99 -20 6 -5 42 -14 80 -20 67 -11 132 -28 275
-70 80 -24 226 -66 260 -76 14 -3 30 -10 35 -14 6 -4 26 -11 45 -15 19 -4 59
-18 88 -31 29 -13 55 -24 57 -24 2 0 36 -16 76 -35 39 -19 80 -37 92 -41 61
-17 232 -132 280 -187 119 -137 93 -236 -98 -376 -27 -20 -77 -51 -110 -67
-33 -17 -69 -36 -80 -42 -37 -21 -155 -72 -168 -72 -7 0 -17 -4 -22 -9 -6 -5
-28 -14 -50 -20 -22 -7 -49 -17 -60 -22 -43 -19 -172 -61 -220 -71 -27 -5 -61
-15 -75 -22 -14 -7 -54 -19 -90 -26 -36 -6 -73 -16 -83 -22 -10 -5 -46 -14
-80 -19 -34 -6 -82 -17 -107 -25 -44 -14 -123 -30 -285 -59 -44 -8 -109 -21
-145 -29 -36 -8 -96 -18 -135 -21 -38 -4 -96 -13 -128 -21 -32 -8 -111 -19
-175 -25 -65 -5 -148 -16 -187 -24 -38 -8 -135 -19 -215 -24 -80 -6 -230 -17
-335 -25 -320 -25 -899 -40 -1325 -33 -466 7 -883 23 -995 37 -44 5 -147 15
-230 20 -82 6 -177 15 -210 20 -33 5 -125 17 -205 25 -80 9 -161 20 -180 26
-19 6 -82 16 -140 24 -146 18 -312 50 -575 110 -55 13 -117 26 -139 30 -21 3
-46 10 -55 15 -9 5 -49 16 -89 26 -40 9 -74 20 -77 24 -3 4 -25 11 -50 15 -46
6 -206 55 -241 73 -10 5 -41 17 -69 26 -101 36 -132 48 -230 97 -156 78 -221
122 -292 199 -97 103 -96 169 4 280 81 90 293 213 498 289 50 18 106 39 125
47 19 8 58 21 85 29 28 7 97 28 155 46 58 17 130 37 160 45 30 7 80 20 110 29
30 8 64 15 76 15 12 0 41 7 65 15 23 9 74 20 113 26 39 6 94 17 121 24 28 8
90 19 138 25 48 6 98 15 110 19 12 5 69 14 127 20 58 7 122 17 142 22 20 5
105 16 189 24 84 8 154 17 157 20 11 11 29 4 51 -19z"/>
<path d="M4621 8026 c-38 -21 -50 -55 -51 -139 0 -117 27 -155 105 -145 51 6
70 47 70 149 0 81 -2 91 -25 113 -32 31 -68 40 -99 22z"/>
<path d="M4264 7462 c-22 -14 -44 -72 -44 -117 0 -110 83 -163 151 -96 26 26
29 36 29 91 0 64 -18 113 -45 124 -22 8 -77 7 -91 -2z"/>
<path d="M4660 7184 c-8 -3 -21 -17 -27 -31 -13 -28 -17 -141 -7 -181 7 -24
54 -54 76 -48 7 2 25 7 40 10 36 8 58 51 54 107 -2 24 -4 54 -4 66 -1 12 -15
36 -32 53 -28 29 -57 35 -100 24z"/>
<path d="M2381 6844 c-128 -28 -231 -113 -291 -239 -81 -172 -54 -358 73 -492
96 -102 195 -148 322 -148 144 0 272 67 361 188 69 93 86 152 82 277 -3 97 -6
111 -37 172 -64 124 -175 215 -294 242 -81 19 -130 19 -216 0z m248 -209 c25
-17 62 -56 84 -90 38 -59 39 -61 35 -140 -3 -70 -8 -85 -36 -126 -54 -78 -141
-129 -222 -129 -124 0 -249 110 -265 235 -13 97 52 214 146 263 38 19 56 22
129 20 75 -3 90 -7 129 -33z"/>
<path d="M7690 6841 c-192 -52 -323 -227 -323 -431 1 -196 123 -360 320 -426
116 -39 194 -31 332 35 46 21 175 150 194 192 21 46 47 153 47 193 0 42 -37
182 -58 221 -78 141 -239 237 -393 234 -30 0 -83 -9 -119 -18z m225 -187 c47
-22 113 -80 132 -118 25 -45 25 -199 0 -244 -60 -109 -176 -159 -305 -128
-112 26 -192 127 -192 243 0 33 5 75 12 94 17 51 67 108 123 140 43 25 61 29
123 29 47 0 86 -6 107 -16z"/>
<path d="M2439 9208 c-75 -13 -103 -61 -73 -124 9 -20 28 -40 41 -45 13 -5
109 -9 213 -9 188 0 189 0 219 26 39 33 42 80 7 121 l-24 28 -171 5 c-94 3
-189 2 -212 -2z"/>
<path d="M3622 9211 l-184 -6 -24 -28 c-31 -36 -31 -78 0 -114 l24 -28 210 0
c225 0 234 2 254 54 5 14 7 40 3 58 -4 25 -15 36 -48 52 -24 12 -45 20 -48 19
-2 -1 -87 -4 -187 -7z"/>
<path d="M3064 8829 l-29 -30 -3 -197 -3 -197 32 -33 c53 -54 122 -39 149 34
11 28 13 307 4 366 -15 86 -93 116 -150 57z"/>
<path d="M7132 7913 c-4 -1 -23 -4 -43 -7 -60 -10 -81 -92 -34 -138 25 -25 78
-35 405 -72 143 -17 364 -52 450 -71 36 -8 85 -18 110 -21 25 -3 83 -14 130
-25 47 -10 139 -30 205 -45 66 -14 138 -32 160 -39 22 -8 67 -21 100 -29 108
-27 199 -54 235 -69 38 -16 116 -32 140 -28 58 8 91 61 70 111 -16 38 -27 47
-92 71 -117 45 -507 153 -624 173 -45 8 -90 19 -100 24 -11 5 -55 15 -99 22
-44 6 -102 17 -130 24 -27 8 -72 17 -100 20 -27 3 -104 15 -170 25 -268 45
-579 82 -613 74z"/>
<path d="M1955 7725 c-38 -7 -87 -20 -107 -29 -21 -9 -48 -16 -61 -16 -28 0
-355 -96 -371 -109 -6 -5 -27 -12 -46 -16 -19 -3 -57 -17 -85 -30 -27 -13 -81
-35 -119 -50 -38 -14 -81 -35 -94 -46 -14 -10 -30 -19 -36 -19 -6 0 -34 -12
-61 -27 -117 -62 -161 -123 -131 -181 30 -58 91 -58 189 0 87 52 182 98 200
98 7 0 17 4 23 9 9 9 118 53 179 71 17 5 48 19 70 30 21 11 46 20 55 20 8 0
42 9 75 19 136 43 169 53 233 66 151 30 227 55 250 81 38 44 23 106 -33 129
-40 17 -38 17 -130 0z"/>
<path d="M9843 5116 l-28 -24 -3 -374 -3 -374 23 -21 c35 -32 77 -37 115 -14
24 15 33 30 41 68 9 46 7 657 -3 698 -14 64 -90 85 -142 41z"/>
<path d="M1938 4790 c-68 -37 -60 -118 17 -154 18 -9 40 -16 49 -16 8 0 37 -9
64 -19 26 -11 70 -22 98 -26 27 -4 54 -11 59 -15 6 -5 38 -14 73 -21 55 -11
67 -11 90 2 39 22 56 58 48 102 -6 33 -13 41 -59 62 -29 14 -83 31 -122 39
-38 9 -113 27 -165 40 -113 30 -105 30 -152 6z"/>
<path d="M9861 3776 c-47 -26 -50 -44 -51 -308 0 -282 -5 -268 90 -268 95 0
90 -14 90 266 0 199 -3 250 -15 274 -25 49 -67 62 -114 36z"/>
<path d="M1560 2244 c-151 -28 -226 -58 -282 -110 -37 -34 -87 -141 -98 -212
-14 -81 -12 -184 5 -279 35 -197 146 -291 369 -312 167 -16 427 8 455 43 12
14 17 138 6 155 -8 14 -57 12 -180 -9 -98 -17 -280 -9 -325 14 -46 24 -89 65
-102 96 -13 32 -11 242 3 295 21 80 75 111 223 127 101 11 176 5 340 -29 38
-8 46 7 46 87 0 74 -4 82 -45 98 -51 20 -357 47 -415 36z"/>
<path d="M8775 2228 c-124 -14 -115 20 -115 -443 0 -478 -13 -438 147 -449
433 -30 613 -7 703 90 48 53 68 130 50 202 -14 57 -24 71 -73 101 -32 20 -57
48 -57 65 0 3 20 25 44 49 75 73 87 182 30 273 -32 52 -87 86 -176 110 -61 16
-419 18 -553 2z m526 -194 c31 -15 48 -58 39 -94 -3 -13 -21 -33 -40 -45 -31
-17 -56 -20 -210 -23 -154 -4 -177 -2 -189 12 -20 23 -25 106 -9 136 12 23 21
26 93 31 112 9 285 -1 316 -17z m36 -380 c43 -33 45 -74 6 -102 -59 -40 -86
-44 -258 -41 -161 4 -167 5 -186 28 -25 30 -26 104 -1 129 15 15 37 17 212 14
190 -3 196 -4 227 -28z"/>
<path d="M2728 2212 c-16 -7 -58 -54 -58 -66 0 -6 -51 -117 -135 -291 -29 -60
-68 -144 -88 -185 -19 -41 -56 -119 -81 -173 -26 -55 -46 -108 -44 -120 4 -27
53 -39 121 -31 56 7 77 26 113 102 16 34 34 56 50 62 14 6 117 10 228 10 231
0 216 5 261 -92 14 -31 32 -61 39 -67 8 -6 44 -14 80 -18 56 -5 69 -3 87 13
32 29 34 24 -171 449 -26 55 -65 136 -85 180 -74 162 -102 210 -126 222 -25
13 -162 16 -191 5z m119 -244 c11 -13 26 -39 33 -58 7 -19 21 -49 32 -66 25
-44 34 -116 16 -132 -15 -12 -199 -19 -217 -8 -23 14 -10 77 35 173 57 121 66
129 101 91z"/>
<path d="M3662 2208 c-9 -9 -12 -118 -12 -428 0 -479 -10 -440 107 -437 99 3
103 8 103 131 1 180 20 217 113 211 69 -3 83 -12 143 -82 27 -32 51 -60 55
-63 3 -3 36 -41 73 -85 88 -106 104 -115 192 -115 56 0 74 4 87 18 10 10 17
23 17 29 0 5 -28 41 -61 79 -142 160 -239 287 -239 313 0 36 22 68 145 211 59
69 119 140 133 159 l26 33 -23 19 c-18 14 -40 19 -91 19 -38 0 -80 -4 -93 -9
-14 -5 -62 -55 -108 -111 -46 -56 -109 -129 -140 -163 -55 -59 -57 -61 -115
-64 -41 -3 -65 1 -78 11 -25 20 -37 91 -35 210 1 86 -1 101 -17 113 -23 17
-165 18 -182 1z"/>
<path d="M4910 2205 c-20 -24 -25 -815 -5 -841 12 -17 43 -18 398 -22 l384 -3
23 28 c18 23 21 37 18 85 -7 92 7 88 -294 88 -280 0 -308 4 -318 46 -8 31 18
81 46 90 13 4 109 7 215 8 132 1 196 5 204 13 6 6 12 41 12 79 1 98 3 97 -223
91 -215 -5 -245 2 -256 58 -9 47 -3 65 29 89 27 20 40 21 298 21 227 0 272 3
279 15 15 23 12 124 -4 146 -14 18 -32 19 -403 22 -352 3 -391 2 -403 -13z"/>
<path d="M6074 2210 c-20 -8 -20 -12 -18 -425 2 -301 6 -421 15 -431 8 -9 33
-14 76 -14 62 0 100 11 115 34 4 6 8 68 8 138 0 181 -7 176 266 170 l202 -4
11 -25 c6 -13 11 -80 11 -152 0 -157 3 -161 105 -160 57 1 72 5 92 25 l23 23
0 396 c0 465 8 435 -111 435 -112 0 -109 4 -109 -163 0 -202 18 -187 -236
-187 -204 0 -205 0 -229 25 -28 27 -29 36 -25 192 2 103 1 112 -18 122 -24 13
-147 14 -178 1z"/>
<path d="M7382 2204 c-22 -15 -22 -18 -22 -252 0 -293 13 -387 64 -465 61 -97
143 -139 306 -157 79 -9 129 -9 209 1 159 18 243 64 304 169 49 85 56 139 57
428 1 243 0 267 -16 279 -24 17 -168 18 -182 1 -6 -8 -11 -110 -13 -262 -4
-269 -12 -321 -59 -371 -80 -85 -316 -87 -398 -2 -45 46 -52 98 -52 384 l0
243 -26 10 c-41 16 -146 12 -172 -6z"/>
<path d="M3602 548 c-18 -18 -15 -53 6 -71 17 -16 149 -17 1737 -15 l1719 3
15 27 c14 24 14 28 -3 47 l-19 21 -1722 0 c-1325 0 -1724 -3 -1733 -12z"/>
</g>
</svg>
